<svg xmlns="http://www.w3.org/2000/svg" width="1735.363" height="1227.008" viewBox="0 0 1735.363 1227.008">
  <g id="Grupo_15" data-name="Grupo 15" transform="translate(-0.591 0.427)">
    <rect id="Rectángulo_1" data-name="Rectángulo 1" width="1735.264" height="1215.686" transform="translate(0.644 -0.427)" fill="#405780"/>
    <path id="Trazado_34" data-name="Trazado 34" d="M755.331,55.153C649.058,27.46,538.906-2.229,414.912,33.4,290.913,69,241.439,86.817,57.42,57.137,38.727,54.122,19.7,50.268.609,45.817V152.145Q28,154.835,57.42,158.051c176.064,19.3,251.485-21.766,342.507-57.385S672.68,95.72,769.7,112.046,861.6,82.86,755.331,55.153Z" transform="translate(0.034 33.97)" fill="#f2f2f2"/>
    <path id="Trazado_35" data-name="Trazado 35" d="M.609,663.132H1735.873V116.346l-145.348,30.176-70.484,43.221-136.786-42.156L1162.8,202.674l-9.235-30.429-184.85-41.55L729.23,160.123,340.36,182.143l-124.059-49L.609,117.774Z" transform="translate(0.035 227.027)" fill="#46709d"/>
    <path id="Trazado_36" data-name="Trazado 36" d="M6.765,144.938l208.849,21.715L241,195.5l160.9-27.031L241,137.8Z" transform="translate(12.003 268.734)" fill="#5c7bac"/>
    <path id="Trazado_37" data-name="Trazado 37" d="M.609,620.21H1735.873V256.4l-237.356-13.986L1376,171.474,774.8,234.933,546.638,177.547,220.6,204.261l-48.5-30.665L.609,158.116Z" transform="translate(0.035 308.234)" fill="#5c7bac"/>
    <path id="Trazado_38" data-name="Trazado 38" d="M1105.532,357.69a1162.04,1162.04,0,0,1-278.813-16.526C656.4,310.531,528.228,80.471,414.366,59.6c-42.2-7.734-80.117,12.421-90.872,29.439h2.447c9.448-12.192,36.7-31.835,82.74-19.217,91.187,24.993,110.718,184.272,252.05,292.12,119.2,90.963,309.526,107.156,444.8,105.266Z" transform="translate(627.776 113.391)" fill="#6a80b3"/>
    <path id="Trazado_39" data-name="Trazado 39" d="M.609,511.933H1245.417l490.457-47.177V248.483c-74.134,19.635-171.38,21.389-240,.992-159.453-47.389-242.225-60.5-429.136-44.734s-369.116-13.782-617.271-1.911C287.753,210.571,106.964,193.1.609,180Z" transform="translate(0.034 350.784)" fill="#a080ac"/>
    <path id="Trazado_40" data-name="Trazado 40" d="M.609,508.988H1640.627l95.247-97.773V297.161c-60.564-5.576-139.539-16.49-215.834-37.912-155.084-43.53-294.09-53.425-393.859-29.021s-228.7,29.021-452.3-8.576S392.9,250.11,187.722,238.666C113.424,234.527,50.571,222.576.609,209Z" transform="translate(0.034 407.157)" fill="#dd9198"/>
    <path id="Trazado_41" data-name="Trazado 41" d="M1142.226-.427H305.957c87.521,19.6,190.956,55.8,283.137,98.93C758.464,177.76,967.646,185,1142.226,172.69Z" transform="translate(593.681 0)" fill="#6a80b3"/>
    <g id="Grupo_8" data-name="Grupo 8" transform="translate(524.555 480.15)">
      <path id="Trazado_42" data-name="Trazado 42" d="M178.558,168.909a7.045,7.045,0,1,0,14.091,0Z" transform="translate(-178.558 -150.932)" fill="#3a5275"/>
      <path id="Trazado_43" data-name="Trazado 43" d="M191.3,172.008a7.045,7.045,0,0,0,14.091,0Z" transform="translate(-153.782 -144.907)" fill="#3a5275"/>
      <path id="Trazado_44" data-name="Trazado 44" d="M205.445,162.8a7.044,7.044,0,1,0,14.088,0Z" transform="translate(-126.285 -162.803)" fill="#3a5275"/>
    </g>
    <path id="Trazado_45" data-name="Trazado 45" d="M86.827,32.3l2.806-10.421L92.444,32.3l10.421,2.812L92.444,37.918,89.633,48.344,86.827,37.918,76.406,35.112Z" transform="translate(147.397 43.368)" fill="#46709d"/>
    <path id="Trazado_46" data-name="Trazado 46" d="M184.389,61.822,187.2,51.4l2.806,10.427,10.425,2.8-10.425,2.8L187.2,77.856l-2.812-10.427-10.42-2.8Z" transform="translate(337.076 100.752)" fill="#46709d"/>
    <path id="Trazado_47" data-name="Trazado 47" d="M396.923,48.33l2.8-10.417,2.8,10.417,10.428,2.81L402.53,53.949l-2.8,10.424-2.8-10.424L386.5,51.14Z" transform="translate(750.261 74.54)" fill="#46709d"/>
    <path id="Trazado_48" data-name="Trazado 48" d="M35.779,86.82,38.587,76.4l2.806,10.42,10.423,2.812-10.423,2.8-2.806,10.427L35.779,92.436l-10.424-2.8Z" transform="translate(48.146 149.365)" fill="#46709d"/>
    <g id="Grupo_9" data-name="Grupo 9" transform="translate(480.653 184.426)">
      <path id="Trazado_49" data-name="Trazado 49" d="M364.468,93.191h4.218l-4.307-9.571h-8.49V77.882H350.84v5.738h-3.9l-8.554-21.26-8.493,21.26H312.465l-4.3,9.571h4.994v14.393h-1.449v6.609h15.345v.254h22.737v-.254h16.248v-6.609h-1.57Z" transform="translate(117.32 -62.359)" fill="#354657"/>
      <path id="Trazado_50" data-name="Trazado 50" d="M347.2,80.051l-.453,12.609-42.443-.735-.43,35.615L258.156,140.4v58.372l228.052,95.969V80.051Z" transform="translate(20.096 -27.963)" fill="#405160"/>
      <path id="Trazado_51" data-name="Trazado 51" d="M304.42,157.239l22.751,7.544,8.722-27.182,51.813-15.491,18.614-15.835,26.707,2.97-3.951-19.784L405.7,92.43,367.73,89.461l-22.607,8.9L328.65,104.3l-50.617,44.191,14.11,4.674L282.9,146.35Z" transform="translate(58.74 -9.668)" fill="#354657"/>
      <rect id="Rectángulo_2" data-name="Rectángulo 2" width="72.218" height="163.177" transform="translate(668.067 563.585)" fill="#162a3d"/>
      <path id="Trazado_52" data-name="Trazado 52" d="M360.365,100.55,292.1,152.985l70.249,77.174,86.071,55.4V100.55Z" transform="translate(86.082 11.892)" fill="#354657"/>
      <rect id="Rectángulo_3" data-name="Rectángulo 3" width="67.089" height="288.369" transform="translate(590.895 412.879)" fill="#2a3d4e"/>
      <path id="Trazado_53" data-name="Trazado 53" d="M498.364,155.965v49.962h67.273V281.62l-321.621-18.8V107.159H356.882Z" transform="translate(-7.396 24.74)" fill="#2a3d4e"/>
      <rect id="Rectángulo_4" data-name="Rectángulo 4" width="84.071" height="313.272" transform="translate(121.959 382.542)" fill="#213446"/>
      <rect id="Rectángulo_5" data-name="Rectángulo 5" width="78.736" height="227.028" transform="translate(66.54 483.661)" fill="#2a3d4e"/>
      <rect id="Rectángulo_6" data-name="Rectángulo 6" width="78.736" height="227.029" transform="translate(635.204 466.534)" fill="#405160"/>
      <rect id="Rectángulo_7" data-name="Rectángulo 7" width="39.37" height="221.536" transform="translate(713.94 381.102)" fill="#2a3d4e"/>
      <rect id="Rectángulo_8" data-name="Rectángulo 8" width="39.374" height="221.535" transform="translate(0 393.834)" fill="#2a3d4e"/>
      <rect id="Rectángulo_9" data-name="Rectángulo 9" width="72.983" height="134.779" transform="translate(94.795 601.56)" fill="#304257"/>
      <rect id="Rectángulo_10" data-name="Rectángulo 10" width="374.061" height="415.954" transform="translate(216.833 275.685)" fill="#213446"/>
      <path id="Trazado_54" data-name="Trazado 54" d="M466.008,268.305l-101.9-85.089H227.578V413.737l212.712,82.6Z" transform="translate(-39.354 172.608)" fill="#2a3d4e"/>
      <path id="Trazado_55" data-name="Trazado 55" d="M458.182,167.757v96.962H399.69L280.966,331l263.374,199.85V167.757Z" transform="translate(64.442 142.553)" fill="#354657"/>
      <path id="Trazado_56" data-name="Trazado 56" d="M220.633,488.406V335.945h79.8V209.652H362.77l84.718,61.673h58.737L661.636,351.12V492.578H643.749Z" transform="translate(-52.855 224.003)" fill="#405160"/>
      <rect id="Rectángulo_11" data-name="Rectángulo 11" width="39.571" height="156.308" transform="translate(216.833 590.798)" fill="#4e5e6c"/>
      <rect id="Rectángulo_12" data-name="Rectángulo 12" width="74.199" height="222.604" transform="translate(484.042 589.942)" fill="#354657"/>
      <path id="Trazado_57" data-name="Trazado 57" d="M362.121,155.433l-28.509-.495L308.38,125.753H264.542V249.421h97.578Z" transform="translate(32.512 60.89)" fill="#213446"/>
      <path id="Trazado_58" data-name="Trazado 58" d="M258.156,118.938v-9.892l45.719-12.865h10.491l-7.915,12.865H279.74Z" transform="translate(20.096 3.396)" fill="#cecece"/>
      <path id="Trazado_59" data-name="Trazado 59" d="M273.831,91.925V118.65L291.808,103.3l39.571-1.478-6.925-15.335,37.1,3.955,22.576-3.955,30.853,9.4,24.729-3.461,16.02,18.306V80.051H316.727v5.937l-4.792,4.793Z" transform="translate(50.571 -27.963)" fill="#bfbfb6"/>
      <path id="Trazado_60" data-name="Trazado 60" d="M363.7,107.159H250.835l-10.328,16.488h19.456l8.575-6.6,16.161,6.6,15.165-4.618,18.477-1.65,41.717,6.268,26.868,18.471h34.634l37.265,26.709,27.7,17.807,5.788,16.165,7.4,26.049,5.463-22.922V155.965Z" transform="translate(-14.215 24.74)" fill="#cecec2"/>
      <path id="Trazado_61" data-name="Trazado 61" d="M434.938,100.55H346.886l-47.857,36.73,31.65,10.585,16.521-30.5,24.885-.982,41.4-.99,21.457,4.615L449.1,100.55Z" transform="translate(99.56 11.892)" fill="#b5b5aa"/>
      <path id="Trazado_62" data-name="Trazado 62" d="M234.907,164.488v19.785l7.031-4.944,6.377-14.842h13.41V151.629Z" transform="translate(-25.105 111.197)" fill="#cecec2"/>
      <path id="Trazado_63" data-name="Trazado 63" d="M316.689,123.232H273.652l-12.365,4.95,3.953,17.812,5.629-15.339h43.837L325.2,142.793Z" transform="translate(26.184 55.988)" fill="#cecec2"/>
      <path id="Trazado_64" data-name="Trazado 64" d="M345.191,133.313v21.766h23.743Z" transform="translate(189.307 75.588)" fill="#cecec2"/>
      <path id="Trazado_65" data-name="Trazado 65" d="M353.174,144.825l.242,32.892h32.653Z" transform="translate(204.826 97.968)" fill="#cecec2"/>
      <path id="Trazado_66" data-name="Trazado 66" d="M364.718,161.81l-.371,17.51h17.887Z" transform="translate(226.548 130.991)" fill="#cecec2"/>
      <path id="Trazado_67" data-name="Trazado 67" d="M227.578,202.1h28.609V173.5Z" transform="translate(-39.354 153.72)" fill="#cecec2"/>
      <rect id="Rectángulo_13" data-name="Rectángulo 13" width="6.36" height="6.353" transform="translate(467.504 35.504)" fill="#e0ab2a"/>
      <rect id="Rectángulo_14" data-name="Rectángulo 14" width="6.354" height="6.353" transform="translate(437.088 35.504)" fill="#2a3d4e"/>
      <rect id="Rectángulo_15" data-name="Rectángulo 15" width="7.832" height="14.721" transform="translate(451.829 31.319)" fill="#2a3d4e"/>
      <path id="Trazado_68" data-name="Trazado 68" d="M343.838,88.459,337.9,118.134H352.5Z" transform="translate(175.138 -11.617)" fill="#354657"/>
      <path id="Trazado_69" data-name="Trazado 69" d="M321.354,269.367l-27.1,48.188,53.074-.193Z" transform="translate(90.277 340.099)" fill="#366e53"/>
      <path id="Trazado_70" data-name="Trazado 70" d="M303.176,77.406a3.9,3.9,0,0,0-3.9,3.9v3.889h7.793V81.3A3.9,3.9,0,0,0,303.176,77.406Z" transform="translate(100.049 -33.105)" fill="#354657"/>
      <path id="Trazado_71" data-name="Trazado 71" d="M298.418,77.406a3.9,3.9,0,0,0-3.9,3.9v3.889h7.793V81.3A3.9,3.9,0,0,0,298.418,77.406Z" transform="translate(90.793 -33.105)" fill="#354657"/>
    </g>
    <g id="Grupo_13" data-name="Grupo 13" transform="translate(4.128 487.345)">
      <path id="Trazado_72" data-name="Trazado 72" d="M401.827,358.455l-60.019-94.92L320.373,379.619l81.454,7.073Z" transform="translate(617.581 25.839)" fill="#204e4d"/>
      <path id="Trazado_73" data-name="Trazado 73" d="M281.118,265.85,248.8,368.016l80.469,2.642Z" transform="translate(478.422 30.341)" fill="#204e4d"/>
      <g id="Grupo_12" data-name="Grupo 12">
        <g id="Grupo_10" data-name="Grupo 10" transform="translate(82.649 19.239)">
          <path id="Trazado_74" data-name="Trazado 74" d="M668.776,359.8,586,182.29,540.647,313.864V532.238H670.254l11.872-64.2Z" transform="translate(963.182 -151.353)" fill="#203537"/>
          <path id="Trazado_75" data-name="Trazado 75" d="M451.9,334.776l10.632,107.238,33.142,23.864,92.563-22.492,6.866-106.806-71.6-154.77Z" transform="translate(790.65 -152.288)" fill="#203537"/>
          <path id="Trazado_76" data-name="Trazado 76" d="M29.865,327.666,74.3,544.752l81.215-51.689,3.956-117.546L115.279,171.782Z" transform="translate(-29.865 -171.782)" fill="#203537"/>
        </g>
        <path id="Trazado_77" data-name="Trazado 77" d="M541.866,174.415l-24.488,208.76L538.4,529.1l117.076,22.127Z" transform="translate(1000.591 -147.423)" fill="#366e53"/>
        <path id="Trazado_78" data-name="Trazado 78" d="M471.255,507.223,537.461,219.89l21.026,42.545,25.063-67.279,67.273,312.067-123.037,9.111Z" transform="translate(910.92 -107.099)" fill="#204e4d"/>
        <path id="Trazado_79" data-name="Trazado 79" d="M579.2,472.6,515.078,305.888,486.57,350.617l-48.3-150.737L379,472.6Z" transform="translate(731.554 -97.916)" fill="#204e4d"/>
        <path id="Trazado_80" data-name="Trazado 80" d="M494.431,373.964l28.691-115.679S544.4,366.583,549.59,371.35,494.431,373.964,494.431,373.964Z" transform="translate(955.978 15.634)" fill="#366e53"/>
        <path id="Trazado_81" data-name="Trazado 81" d="M557.9,350.118,508.931,199.525,385.975,502.053,580.083,518.74Z" transform="translate(745.121 -98.604)" fill="#203537"/>
        <g id="Grupo_11" data-name="Grupo 11" transform="translate(0 31.424)">
          <path id="Trazado_82" data-name="Trazado 82" d="M548.673,361.514l13.079-107.353,25.626,76.548,40.379-122.447,42.636,41.816V523.018L555.565,485.066Z" transform="translate(1061.434 -113.042)" fill="#204e4d"/>
          <path id="Trazado_83" data-name="Trazado 83" d="M453.7,412.144l61.066-200.3,64.493,292.471h-111.1Z" transform="translate(876.799 -106.073)" fill="#204e4d"/>
          <path id="Trazado_84" data-name="Trazado 84" d="M161.924,303.225l59.812-113.783L342.024,521.657l-115.65-20.894Z" transform="translate(309.529 -149.632)" fill="#204e4d"/>
          <path id="Trazado_85" data-name="Trazado 85" d="M1.792,597.326,58.961,175.92,228.73,603.513Z" transform="translate(-1.792 -175.92)" fill="#204e4d"/>
        </g>
        <path id="Trazado_86" data-name="Trazado 86" d="M476.352,180.415,431.9,533.478l112.9,5.727Z" transform="translate(834.407 -135.757)" fill="#366e53"/>
        <path id="Trazado_87" data-name="Trazado 87" d="M232.454,407.767,143.416,174.428,61.277,537.239l-18.07,25.437,109.351,64.55,79.9-72.463Z" transform="translate(78.723 -147.398)" fill="#366e53"/>
        <path id="Trazado_88" data-name="Trazado 88" d="M196.682,461.22l-39.571-74.961L106.819,592.272l230.538-8.051,25.291-53.435L222.089,172.641Z" transform="translate(202.396 -150.872)" fill="#366e53"/>
        <path id="Trazado_89" data-name="Trazado 89" d="M207.411,165.247l-62.747,279.9-27.209-65.657L71.87,559.012,248.191,568.7l83.67,12.507Z" transform="translate(134.45 -165.247)" fill="#204e4d"/>
        <path id="Trazado_90" data-name="Trazado 90" d="M143.419,381.2,187.211,264.69l41.3,92.35Z" transform="translate(273.554 28.085)" fill="#204e4d"/>
        <path id="Trazado_91" data-name="Trazado 91" d="M99.69,451.212c20.989,0,71.281-206.015,71.281-206.015l64.978,201.99Z" transform="translate(188.536 -9.811)" fill="#366e53"/>
        <path id="Trazado_92" data-name="Trazado 92" d="M482.891,416.278l-72.04-177.872-23.93,88.975-23.335-6.659L341.1,407.88Z" transform="translate(657.882 -23.014)" fill="#366e53"/>
        <path id="Trazado_93" data-name="Trazado 93" d="M263.128,243.9l-59.362,158.5L303.8,410.048Z" transform="translate(390.877 -12.326)" fill="#204e4d"/>
        <path id="Trazado_94" data-name="Trazado 94" d="M288.3,230.07,221.913,419.135,329.935,429.3Z" transform="translate(426.157 -39.22)" fill="#366e53"/>
      </g>
      <path id="Trazado_95" data-name="Trazado 95" d="M270.75,377.4l62.582-.23L316.264,255.69Z" transform="translate(521.105 10.59)" fill="#366e53"/>
      <path id="Trazado_96" data-name="Trazado 96" d="M332.94,273.646l-19.031,77.434,54.318-.2Z" transform="translate(605.014 45.497)" fill="#366e53"/>
    </g>
    <g id="Grupo_14" data-name="Grupo 14" transform="translate(0.591 825.324)">
      <rect id="Rectángulo_16" data-name="Rectángulo 16" width="1735.317" height="360.459" transform="translate(0 29.476)" fill="#4f3319"/>
      <path id="Trazado_97" data-name="Trazado 97" d="M304.978,336.9a9.233,9.233,0,1,0,9.236,9.233A9.237,9.237,0,0,0,304.978,336.9Z" transform="translate(573.23 -169.502)" fill="#472a0f"/>
      <path id="Trazado_98" data-name="Trazado 98" d="M184.01,358.566a9.24,9.24,0,1,0,9.236,9.245A9.239,9.239,0,0,0,184.01,358.566Z" transform="translate(338.054 -127.381)" fill="#472a0f"/>
      <path id="Trazado_99" data-name="Trazado 99" d="M126.843,345.517a9.236,9.236,0,1,0,9.236,9.236A9.235,9.235,0,0,0,126.843,345.517Z" transform="translate(226.918 -152.751)" fill="#472a0f"/>
      <path id="Trazado_100" data-name="Trazado 100" d="M357.951,352.177a9.233,9.233,0,1,0,9.236,9.239A9.235,9.235,0,0,0,357.951,352.177Z" transform="translate(676.236 -139.803)" fill="#472a0f"/>
      <path id="Trazado_101" data-name="Trazado 101" d="M346.619,311.529a9.236,9.236,0,1,0,9.23,9.236A9.24,9.24,0,0,0,346.619,311.529Z" transform="translate(654.188 -218.829)" fill="#472a0f"/>
      <path id="Trazado_102" data-name="Trazado 102" d="M401.451,324.8a9.231,9.231,0,1,0,9.233,9.227A9.225,9.225,0,0,0,401.451,324.8Z" transform="translate(760.79 -193.032)" fill="#472a0f"/>
      <path id="Trazado_103" data-name="Trazado 103" d="M477,358.566a9.24,9.24,0,1,0,9.23,9.245A9.239,9.239,0,0,0,477,358.566Z" transform="translate(907.677 -127.381)" fill="#472a0f"/>
      <path id="Trazado_104" data-name="Trazado 104" d="M491.731,327.438a9.233,9.233,0,1,0,9.236,9.227A9.232,9.232,0,0,0,491.731,327.438Z" transform="translate(936.309 -187.899)" fill="#472a0f"/>
      <path id="Trazado_105" data-name="Trazado 105" d="M558.987,310.168a9.233,9.233,0,1,0,9.245,9.23A9.228,9.228,0,0,0,558.987,310.168Z" transform="translate(1067.089 -221.475)" fill="#472a0f"/>
      <path id="Trazado_106" data-name="Trazado 106" d="M578.819,340.869a9.233,9.233,0,1,0,9.233,9.23A9.222,9.222,0,0,0,578.819,340.869Z" transform="translate(1105.634 -161.787)" fill="#472a0f"/>
      <path id="Trazado_107" data-name="Trazado 107" d="M160.817,338.554a9.236,9.236,0,1,0,9.236,9.233A9.239,9.239,0,0,0,160.817,338.554Z" transform="translate(292.958 -166.288)" fill="#472a0f"/>
      <path id="Trazado_108" data-name="Trazado 108" d="M104.494,308.683a9.234,9.234,0,1,0,9.236,9.233A9.232,9.232,0,0,0,104.494,308.683Z" transform="translate(183.468 -224.362)" fill="#472a0f"/>
      <path id="Trazado_109" data-name="Trazado 109" d="M222.172,331.88a9.236,9.236,0,1,0,9.23,9.236A9.236,9.236,0,0,0,222.172,331.88Z" transform="translate(412.242 -179.263)" fill="#472a0f"/>
      <path id="Trazado_110" data-name="Trazado 110" d="M30.1,348.566a9.236,9.236,0,1,0,9.239,9.227A9.233,9.233,0,0,0,30.1,348.566Z" transform="translate(38.832 -146.823)" fill="#472a0f"/>
      <path id="Trazado_111" data-name="Trazado 111" d="M33.895,339.807a9.233,9.233,0,1,0-9.23,9.236A9.23,9.23,0,0,0,33.895,339.807Z" transform="translate(28.256 -181.802)" fill="#472a0f"/>
      <path id="Trazado_112" data-name="Trazado 112" d="M191.6,321.276a13.685,13.685,0,1,0,13.685,13.687A13.684,13.684,0,0,0,191.6,321.276Z" transform="translate(344.151 -199.879)" fill="#472a0f"/>
      <path id="Trazado_113" data-name="Trazado 113" d="M33.041,307.169a13.689,13.689,0,1,0,13.687,13.69A13.69,13.69,0,0,0,33.041,307.169Z" transform="translate(35.892 -227.306)" fill="#472a0f"/>
      <path id="Trazado_114" data-name="Trazado 114" d="M257.125,355.315A13.686,13.686,0,1,0,270.81,369,13.687,13.687,0,0,0,257.125,355.315Z" transform="translate(471.549 -133.702)" fill="#472a0f"/>
      <path id="Trazado_115" data-name="Trazado 115" d="M86.021,355.315A13.686,13.686,0,1,0,99.706,369,13.691,13.691,0,0,0,86.021,355.315Z" transform="translate(138.888 -133.702)" fill="#472a0f"/>
      <path id="Trazado_116" data-name="Trazado 116" d="M282,322.956a13.687,13.687,0,1,0,13.685,13.679A13.692,13.692,0,0,0,282,322.956Z" transform="translate(519.89 -196.613)" fill="#472a0f"/>
      <path id="Trazado_117" data-name="Trazado 117" d="M517.52,335.388a13.687,13.687,0,1,0,13.7,13.687A13.693,13.693,0,0,0,517.52,335.388Z" transform="translate(977.798 -172.443)" fill="#472a0f"/>
      <path id="Trazado_118" data-name="Trazado 118" d="M396.6,344a13.687,13.687,0,1,0,13.7,13.69A13.693,13.693,0,0,0,396.6,344Z" transform="translate(742.709 -155.692)" fill="#472a0f"/>
      <path id="Trazado_119" data-name="Trazado 119" d="M459.781,316.625a13.69,13.69,0,1,0,13.688,13.693A13.7,13.7,0,0,0,459.781,316.625Z" transform="translate(865.534 -208.922)" fill="#472a0f"/>
      <path id="Trazado_120" data-name="Trazado 120" d="M321.916,333.737a4.864,4.864,0,1,0,4.864,4.861A4.863,4.863,0,0,0,321.916,333.737Z" transform="translate(614.661 -175.653)" fill="#472a0f"/>
      <path id="Trazado_121" data-name="Trazado 121" d="M429.282,370.253a4.861,4.861,0,1,0,4.864,4.864A4.867,4.867,0,0,0,429.282,370.253Z" transform="translate(823.398 -104.66)" fill="#472a0f"/>
      <path id="Trazado_122" data-name="Trazado 122" d="M495.284,317.971a4.865,4.865,0,1,0,4.864,4.87A4.868,4.868,0,0,0,495.284,317.971Z" transform="translate(951.723 -206.305)" fill="#472a0f"/>
      <path id="Trazado_123" data-name="Trazado 123" d="M414.639,317.971a4.865,4.865,0,1,0,4.861,4.87A4.869,4.869,0,0,0,414.639,317.971Z" transform="translate(794.924 -206.305)" fill="#472a0f"/>
      <path id="Trazado_124" data-name="Trazado 124" d="M493.633,366.949a4.864,4.864,0,1,0,4.867,4.87A4.866,4.866,0,0,0,493.633,366.949Z" transform="translate(948.507 -111.083)" fill="#472a0f"/>
      <path id="Trazado_125" data-name="Trazado 125" d="M465.715,342.026a4.861,4.861,0,1,0,4.867,4.867A4.866,4.866,0,0,0,465.715,342.026Z" transform="translate(894.23 -159.538)" fill="#472a0f"/>
      <path id="Trazado_126" data-name="Trazado 126" d="M142.964,329.766a4.866,4.866,0,1,0,2.706,6.327A4.874,4.874,0,0,0,142.964,329.766Z" transform="translate(263.213 -184.053)" fill="#472a0f"/>
      <path id="Trazado_127" data-name="Trazado 127" d="M158.093,362.058a4.861,4.861,0,1,0,2.7,6.321A4.867,4.867,0,0,0,158.093,362.058Z" transform="translate(292.629 -121.276)" fill="#472a0f"/>
      <path id="Trazado_128" data-name="Trazado 128" d="M62.231,353.706a4.865,4.865,0,1,0,2.706,6.324A4.859,4.859,0,0,0,62.231,353.706Z" transform="translate(106.268 -137.516)" fill="#472a0f"/>
      <path id="Trazado_129" data-name="Trazado 129" d="M200.751,352.049a4.867,4.867,0,1,0,2.7,6.333A4.879,4.879,0,0,0,200.751,352.049Z" transform="translate(375.557 -140.732)" fill="#472a0f"/>
      <path id="Trazado_130" data-name="Trazado 130" d="M222.889,308.868a4.864,4.864,0,1,0,2.706,6.321A4.864,4.864,0,0,0,222.889,308.868Z" transform="translate(418.608 -224.688)" fill="#472a0f"/>
      <path id="Trazado_131" data-name="Trazado 131" d="M239.69,338.74a4.864,4.864,0,1,0,2.706,6.315A4.853,4.853,0,0,0,239.69,338.74Z" transform="translate(451.275 -166.613)" fill="#472a0f"/>
      <path id="Trazado_132" data-name="Trazado 132" d="M369.408,345.7a4.865,4.865,0,1,0,2.7,6.33A4.873,4.873,0,0,0,369.408,345.7Z" transform="translate(703.457 -153.078)" fill="#472a0f"/>
      <path id="Trazado_133" data-name="Trazado 133" d="M361.679,315.021a4.864,4.864,0,1,0,2.7,6.318A4.87,4.87,0,0,0,361.679,315.021Z" transform="translate(688.431 -212.726)" fill="#472a0f"/>
      <path id="Trazado_134" data-name="Trazado 134" d="M302.251,360.4a4.864,4.864,0,1,0,2.7,6.33A4.868,4.868,0,0,0,302.251,360.4Z" transform="translate(572.904 -124.493)" fill="#472a0f"/>
      <path id="Trazado_135" data-name="Trazado 135" d="M300.282,324.048a4.864,4.864,0,1,0-2.7-6.336A4.868,4.868,0,0,0,300.282,324.048Z" transform="translate(576.115 -212.726)" fill="#472a0f"/>
      <path id="Trazado_136" data-name="Trazado 136" d="M47.141,335.74a4.864,4.864,0,1,0,2.7,6.321A4.87,4.87,0,0,0,47.141,335.74Z" transform="translate(76.925 -172.441)" fill="#472a0f"/>
      <path id="Trazado_137" data-name="Trazado 137" d="M10.232,357.01a4.864,4.864,0,1,0,2.7,6.321A4.875,4.875,0,0,0,10.232,357.01Z" transform="translate(5.168 -131.089)" fill="#472a0f"/>
      <path id="Trazado_138" data-name="Trazado 138" d="M78.389,317.894a4.864,4.864,0,1,0-2.706-6.327A4.858,4.858,0,0,0,78.389,317.894Z" transform="translate(144.713 -224.688)" fill="#472a0f"/>
      <path id="Trazado_139" data-name="Trazado 139" d="M98.638,342.4a4.859,4.859,0,1,0,2.7,6.318A4.856,4.856,0,0,0,98.638,342.4Z" transform="translate(177.041 -159.503)" fill="#472a0f"/>
      <path id="Trazado_140" data-name="Trazado 140" d="M533.821,330.6a4.864,4.864,0,1,0,4.864,4.864A4.866,4.866,0,0,0,533.821,330.6Z" transform="translate(1026.635 -181.748)" fill="#472a0f"/>
      <path id="Trazado_141" data-name="Trazado 141" d="M567.874,365.3a4.87,4.87,0,1,0,4.864,4.87A4.869,4.869,0,0,0,567.874,365.3Z" transform="translate(1092.838 -114.299)" fill="#472a0f"/>
      <path id="Trazado_142" data-name="Trazado 142" d="M575.936,326.052a4.867,4.867,0,1,0-4.864-4.87A4.869,4.869,0,0,0,575.936,326.052Z" transform="translate(1108.518 -209.516)" fill="#472a0f"/>
      <path id="Trazado_143" data-name="Trazado 143" d="M1714.1,288.75H11.808v21.995L33.8,332.734l22-21.989,22,21.989L99.78,310.745l21.991,21.989,21.995-21.989,21.989,21.989,22-21.989,21.989,21.989,22-21.989,21.991,21.989.183-.181.188.181,21.808-21.814,21.807,21.814.188-.181.183.181,21.808-21.814L341.7,332.734l.188-.181.183.181,21.807-21.814,21.807,21.814.188-.181.183.181,21.814-21.814,21.8,21.814.183-.181.19.181,21.807-21.814,21.808,21.814.183-.181.188.181,21.807-21.814,21.807,21.814.182-.181.183.181,21.814-21.814,21.807,21.814.184-.181.183.181,21.811-21.808,21.808,21.808.182-.181.188.181,21.808-21.808L649.6,332.734l.182-.181.188.181,21.808-21.814,21.808,21.814.182-.181.188.181,21.807-21.814,21.808,21.814.188-.181.182.181,21.808-21.814,21.807,21.814.188-.181.182.181,21.807-21.814,21.808,21.814.182-.181.188.181,21.807-21.814,21.811,21.814.181-.181.19.181,21.8-21.814,21.805,21.814.184-.181.181.181,21.814-21.814L957.5,332.734l.181-.181.19.181,21.808-21.814,21.814,21.814.181-.181.179.181,21.811-21.814,21.814,21.814.184-.181.181.181,21.808-21.814,21.808,21.814.181-.181.19.181,21.808-21.814,21.814,21.814.175-.181.184.181,21.814-21.814,21.805,21.814.184-.181.181.181,21.814-21.814,21.808,21.814.19-.181.181.181,21.808-21.814,21.808,21.814.181-.181.19.181,21.808-21.814,21.808,21.814.178-.181.181.181,21.814-21.814,21.808,21.814.184-.181.187.181,21.808-21.814,21.808,21.814.181-.181.184.181,21.814-21.814,21.8,21.814.19-.181.184.181,21.8-21.814,21.808,21.814.184-.181.187.181,21.8-21.814,21.814,21.814.181-.181.19.181,21.989-21.989,21.992,21.989,22-21.989,21.984,21.989,22-21.989,21.995,21.989,21.989-21.989,21.992,21.989,8.473-8.482Z" transform="translate(21.215 -263.115)" fill="#472a0f"/>
      <path id="Trazado_144" data-name="Trazado 144" d="M264.1,292.744V479.057H450.419V292.744ZM439.089,467.725H275.429V304.07h163.66Z" transform="translate(511.713 -255.35)" fill="#472a0f"/>
      <path id="Trazado_145" data-name="Trazado 145" d="M204.679,292.744V479.057h186.31V292.744ZM379.66,467.725H216V304.07H379.66Z" transform="translate(396.189 -255.35)" fill="#472a0f"/>
      <path id="Trazado_146" data-name="Trazado 146" d="M204.679,353.048V539.367h186.31V353.048ZM379.66,528.034H216V364.38H379.66Z" transform="translate(396.189 -138.109)" fill="#472a0f"/>
      <path id="Trazado_147" data-name="Trazado 147" d="M323.355,292.744V479.057H509.677V292.744ZM498.344,467.725H334.684V304.07h163.66Z" transform="translate(626.915 -255.35)" fill="#472a0f"/>
      <path id="Trazado_148" data-name="Trazado 148" d="M323.355,353.048V539.367H509.677V353.048ZM498.344,528.034H334.684V364.38h163.66Z" transform="translate(626.915 -138.109)" fill="#472a0f"/>
      <path id="Trazado_149" data-name="Trazado 149" d="M442.033,293.155V479.477h186.31V293.155ZM617.022,468.147H453.362V304.493h163.66Z" transform="translate(857.644 -254.551)" fill="#472a0f"/>
      <path id="Trazado_150" data-name="Trazado 150" d="M442.033,353.048V539.367h186.31V353.048ZM617.022,528.034H453.362V364.38h163.66Z" transform="translate(857.644 -138.109)" fill="#472a0f"/>
      <path id="Trazado_151" data-name="Trazado 151" d="M501.783,353.05V539.363H688.1V353.05Zm175,174.989H513.118V364.376h163.66Z" transform="translate(973.808 -138.105)" fill="#472a0f"/>
      <path id="Trazado_152" data-name="Trazado 152" d="M382.966,353.05V539.363H569.282V353.05ZM557.953,528.039H394.289V364.376H557.953Z" transform="translate(742.808 -138.105)" fill="#472a0f"/>
      <path id="Trazado_153" data-name="Trazado 153" d="M263.476,353.05V539.363H449.792V353.05Zm174.98,174.989H274.8V364.376H438.456Z" transform="translate(510.5 -138.105)" fill="#472a0f"/>
      <path id="Trazado_154" data-name="Trazado 154" d="M145.329,353.05V539.363h186.31V353.05ZM320.313,528.039H156.658V364.376H320.313Z" transform="translate(280.803 -138.105)" fill="#472a0f"/>
      <path id="Trazado_155" data-name="Trazado 155" d="M26.509,353.05V539.363H212.828V353.05ZM201.5,528.039H37.838V364.376H201.5Z" transform="translate(49.797 -138.105)" fill="#472a0f"/>
      <path id="Trazado_156" data-name="Trazado 156" d="M145.253,292.744V479.057H331.569V292.744ZM320.239,467.725H156.582V304.07H320.239Z" transform="translate(280.655 -255.35)" fill="#472a0f"/>
      <path id="Trazado_157" data-name="Trazado 157" d="M.591,292.744v11.325h72.55V467.724H.591v11.334h87.37V292.744Z" transform="translate(-0.591 -255.35)" fill="#472a0f"/>
      <path id="Trazado_158" data-name="Trazado 158" d="M85.831,292.744V479.057H272.147V292.744ZM260.82,467.725H97.16V304.07H260.82Z" transform="translate(165.129 -255.35)" fill="#472a0f"/>
      <path id="Trazado_159" data-name="Trazado 159" d="M646.943,467.724H572.036V304.069h74.907V292.744H560.711V479.058h86.232Z" transform="translate(1088.374 -255.35)" fill="#472a0f"/>
      <path id="Trazado_160" data-name="Trazado 160" d="M85.831,353.048V539.367H272.147V353.048ZM260.82,528.034H97.16V364.38H260.82Z" transform="translate(165.129 -138.109)" fill="#472a0f"/>
      <path id="Trazado_161" data-name="Trazado 161" d="M26.406,292.744V479.057H212.728V292.744ZM201.4,467.725H37.732V304.07H201.4Z" transform="translate(49.597 -255.35)" fill="#472a0f"/>
      <path id="Trazado_162" data-name="Trazado 162" d="M1735.873,284.1H.609V316.66l11.433,11.429L34.033,306.1l21.991,21.992L78.019,306.1l21.991,21.992,22-21.992L144,328.089l22-21.992,21.989,21.992,22-21.992,21.991,21.992,21.951-21.958,21.953,21.958.042-.043.04.043L297.9,306.131l21.955,21.958.042-.037.042.037,21.953-21.958,21.951,21.958.04-.043.042.043,21.955-21.958,21.948,21.958.042-.043.042.043,21.949-21.958,21.955,21.958.042-.043.04.043,21.949-21.958L495.8,328.089l.04-.043.042.043,21.949-21.958,21.948,21.958.046-.043.043.043,21.953-21.958,21.945,21.958.046-.043.042.043L605.8,306.131l21.953,21.958.042-.043.04.043,21.951-21.958,21.953,21.958.043-.043.04.043,21.948-21.958,21.956,21.958.04-.043.042.043,21.949-21.958,21.955,21.958.04-.043.043.043,21.948-21.958L803.7,328.089l.042-.043.04.043,21.949-21.958,21.955,21.958.042-.043.04.043,21.951-21.958,21.956,21.958.04-.037.04.037L913.7,306.131l21.946,21.958.049-.043.043.043,21.949-21.958,21.952,21.958.043-.043.04.043,21.949-21.958,21.949,21.958.046-.037.043.037,21.946-21.958,21.955,21.958.034-.037.052.037,21.946-21.958,21.955,21.958.04-.043.043.043,21.949-21.958,21.949,21.958.04-.043.04.043,21.955-21.958,21.949,21.958.049-.043.04.043,21.949-21.958,21.955,21.958.035-.037.046.037,21.952-21.958,21.955,21.958.04-.043.04.043,21.949-21.958,21.946,21.958.051-.043.04.043,21.949-21.958,21.952,21.958.037-.037.04.037,21.958-21.958,21.946,21.958.04-.043.049.043,21.946-21.958,21.958,21.958.034-.037.043.037,21.946-21.958,21.961,21.958.034-.037.043.037,21.955-21.958,21.955,21.958,21.989-21.992,21.992,21.992,22-21.992,21.984,21.992,22-21.992,21.995,21.992,21.989-21.992,21.992,21.992,8.473-8.479Z" transform="translate(-0.556 -272.152)" fill="#79a828"/>
      <path id="Trazado_163" data-name="Trazado 163" d="M1729.95,280.043h-11.322V291.3h-11.311V280.043h-11.328V291.3h-11.308V280.043h-11.32V291.3h-11.322V280.043h-11.314V291.3h-11.311V280.043h-11.322V291.3h-11.311V280.043h-11.322V291.3h-11.314V280.043h-11.319V291.3h-11.314V280.043h-11.322V291.3h-11.311V280.043h-11.313V291.3h-11.325V280.043h-11.317V291.3h-11.314V280.043h-11.317V291.3h-11.317V280.043h-11.317V291.3h-11.317V280.043h-11.32V291.3H1435.7V280.043h-11.317V291.3h-11.314V280.043h-11.311V291.3h-11.322V280.043h-11.317V291.3H1367.8V280.043h-11.308V291.3H1345.17V280.043h-11.319V291.3h-11.314V280.043H1311.22V291.3h-11.314V280.043h-11.325V291.3h-11.317V280.043h-11.308V291.3h-11.322V280.043h-11.319V291.3h-11.308V280.043h-11.322V291.3H1209.37V280.043h-11.325V291.3h-11.311V280.043H1175.42V291.3H1164.1V280.043h-11.317V291.3h-11.311V280.043h-11.322V291.3h-11.314V280.043h-11.322V291.3H1096.2V280.043h-11.314V291.3h-11.322V280.043h-11.317V291.3h-11.316V280.043h-11.317V291.3H1028.3V280.043h-11.316V291.3h-11.319V280.043H994.349V291.3H983.032V280.043H971.715V291.3H960.4V280.043H949.076V291.3H937.757V280.043H926.446V291.3H915.129V280.043H903.807V291.3H892.49V280.043H881.179V291.3H869.858V280.043H858.542V291.3H847.225V280.043H835.91V291.3H824.593V280.043H813.271V291.3H801.96V280.043H790.645V291.3H779.322V280.043H768.006V291.3H756.69V280.043H745.374V291.3H734.059V280.043H722.741V291.3H711.425V280.043H700.109V291.3H688.794V280.043H677.47V291.3H666.16V280.043H654.844V291.3H643.523V280.043H632.2V291.3H620.889V280.043H609.573V291.3H598.258V280.043H586.934V291.3H575.624V280.043H564.3V291.3H552.987V280.043H541.67V291.3H530.354V280.043h-11.32V291.3H507.717V280.043H496.4V291.3H485.084V280.043H473.769V291.3H462.449V280.043H451.139V291.3H439.819V280.043H428.5V291.3H417.181V280.043H405.872V291.3H394.551V280.043H383.233V291.3H371.918V280.043H360.6V291.3H349.285V280.043H337.968V291.3H326.65V280.043H315.332V291.3H304.014V280.043H292.7V291.3H281.382V280.043H270.064V291.3H258.749V280.043H247.432V291.3H236.114V280.043H224.793V291.3H213.478V280.043H202.161V291.3H190.846V280.043H179.528V291.3H168.21V280.043H156.89V291.3H145.581V280.043H134.263V291.3H122.942V280.043H111.627V291.3H100.313V280.043H88.995V291.3H77.677V280.043H66.361V291.3H55.045V280.043H43.73V291.3H32.409V280.043H21.093V291.3H9.78V280.043H.609V300H1735.919v-8.7h-5.969Z" transform="translate(-0.556 -280.043)" fill="#81d028"/>
      <path id="Trazado_164" data-name="Trazado 164" d="M646.943,528.036H572.036V364.382h74.907V353.048H560.711V539.367h86.232Z" transform="translate(1088.374 -138.109)" fill="#472a0f"/>
      <path id="Trazado_165" data-name="Trazado 165" d="M.591,353.048v11.334H72.455V528.036H.591v11.331h87.37V353.048Z" transform="translate(-0.591 -138.109)" fill="#472a0f"/>
    </g>
  </g>
</svg>
