<svg id="Layer_1" data-name="Layer 1" xmlns="http://www.w3.org/2000/svg" viewBox="0 0 590 280.04"><title>instructionBG</title><rect x="0.61" y="-0.43" width="589.39" height="412.91" style="fill:#405780"/><path d="M257,30c-36.09-9.41-73.51-19.49-115.62-7.39S82.41,40.74,19.91,30.66c-6.35-1-12.82-2.33-19.3-3.84V62.93q9.3.91,19.3,2c59.8,6.55,85.41-7.39,116.33-19.49s92.64-1.68,125.59,3.86S293.05,39.4,257,30Z" style="fill:#f2f2f2"/><polygon points="0.61 302.06 590 302.06 590 116.35 540.63 126.6 516.69 141.28 470.23 126.96 395.35 145.67 392.21 135.33 329.43 121.22 248.09 131.22 116.01 138.69 73.87 122.05 0.61 116.83 0.61 302.06" style="fill:#46709d"/><polygon points="6.76 140.22 77.7 147.6 86.33 157.4 140.98 148.22 86.33 137.8 6.76 140.22" style="fill:#5c7bac"/><polygon points="0.61 315.07 590 315.07 590 191.5 509.38 186.75 467.77 162.65 263.57 184.21 186.07 164.72 75.33 173.79 58.86 163.37 0.61 158.12 0.61 315.07" style="fill:#5c7bac"/><path d="M589.12,159.72a394.56,394.56,0,0,1-94.7-5.61C436.57,143.71,393,65.56,354.36,58.47c-14.33-2.62-27.21,4.22-30.87,10h.84c3.2-4.14,12.46-10.81,28.1-6.52,31,8.49,37.6,62.59,85.61,99.22,40.49,30.89,105.13,36.39,151.08,35.75Z" style="fill:#6a80b3"/><path d="M.61,292.74h422.8l166.59-16V203.26c-25.18,6.67-58.21,7.27-81.52.34-54.16-16.1-82.27-20.55-145.76-15.19s-125.37-4.69-209.65-.65C98.14,190.38,36.73,184.45.61,180Z" style="fill:#a080ac"/><path d="M.61,310.89h557L590,277.68V238.94c-20.57-1.89-47.39-5.6-73.31-12.87-52.67-14.79-99.89-18.15-133.77-9.86s-77.68,9.86-153.63-2.91S133.85,223,64.16,219.08A308.2,308.2,0,0,1,.61,209Z" style="fill:#dd9198"/><path d="M590-.43H306c29.72,6.66,64.86,19,96.17,33.61C459.65,60.09,530.7,62.55,590,58.37Z" style="fill:#f2f2f2"/><path d="M178.56,168.91a2.39,2.39,0,0,0,4.78,0Z" style="fill:#3a5275"/><path d="M191.3,172a2.4,2.4,0,0,0,4.79,0Z" style="fill:#3a5275"/><path d="M205.45,162.8a2.39,2.39,0,1,0,4.78,0Z" style="fill:#3a5275"/><polygon points="79.95 25.42 80.9 21.88 81.85 25.42 85.39 26.37 81.85 27.33 80.9 30.87 79.95 27.33 76.41 26.37 79.95 25.42" style="fill:#46709d"/><polygon points="177.51 54.94 178.46 51.4 179.42 54.94 182.96 55.89 179.42 56.84 178.46 60.38 177.51 56.84 173.97 55.89 177.51 54.94" style="fill:#46709d"/><polygon points="390.04 41.45 390.99 37.91 391.94 41.45 395.48 42.41 391.94 43.36 390.99 46.9 390.04 43.36 386.5 42.41 390.04 41.45" style="fill:#46709d"/><polygon points="28.9 79.94 29.85 76.4 30.8 79.94 34.34 80.89 30.8 81.85 29.85 85.39 28.9 81.85 25.36 80.89 28.9 79.94" style="fill:#46709d"/><polygon points="327.29 72.83 328.72 72.83 327.26 69.58 324.37 69.58 324.37 67.63 322.66 67.63 322.66 69.58 321.33 69.58 318.43 62.36 315.54 69.58 309.63 69.58 308.16 72.83 309.86 72.83 309.86 77.72 309.37 77.72 309.37 79.96 314.58 79.96 314.58 80.05 322.3 80.05 322.3 79.96 327.82 79.96 327.82 77.72 327.29 77.72 327.29 72.83" style="fill:#354657"/><polygon points="288.4 80.05 288.25 84.33 273.83 84.08 273.69 96.18 258.16 100.55 258.16 120.38 335.62 152.97 335.62 80.05 288.4 80.05" style="fill:#405160"/><polygon points="287 112.48 294.72 115.04 297.69 105.81 315.28 100.55 321.61 95.17 330.68 96.18 329.34 89.46 321.39 90.47 308.5 89.46 300.82 92.48 295.23 94.5 278.03 109.51 282.83 111.1 279.69 108.78 287 112.48" style="fill:#354657"/><rect x="390.56" y="253.78" width="24.53" height="55.42" style="fill:#162a3d"/><polygon points="315.28 100.55 292.1 118.36 315.96 144.57 345.19 163.39 345.19 100.55 315.28 100.55" style="fill:#354657"/><rect x="364.35" y="202.6" width="22.79" height="97.95" style="fill:#2a3d4e"/><polygon points="330.41 123.74 330.41 140.71 353.26 140.71 353.26 166.42 244.02 160.03 244.02 107.16 282.35 107.16 330.41 123.74" style="fill:#2a3d4e"/><rect x="205.07" y="192.29" width="28.56" height="106.4" style="fill:#213446"/><rect x="186.25" y="226.64" width="26.74" height="77.11" style="fill:#2a3d4e"/><rect x="379.4" y="220.82" width="26.74" height="77.11" style="fill:#405160"/><rect x="406.14" y="191.8" width="13.37" height="75.25" style="fill:#2a3d4e"/><rect x="163.65" y="196.13" width="13.37" height="75.25" style="fill:#2a3d4e"/><rect x="195.84" y="266.68" width="24.79" height="45.78" style="fill:#304257"/><rect x="237.29" y="156" width="127.05" height="141.28" style="fill:#213446"/><polygon points="308.56 212.12 273.95 183.22 227.58 183.22 227.58 261.51 299.83 289.57 308.56 212.12" style="fill:#2a3d4e"/><polygon points="341.16 167.76 341.16 200.69 321.29 200.69 280.97 223.2 370.42 291.08 370.42 167.76 341.16 167.76" style="fill:#354657"/><polygon points="220.63 304.33 220.63 252.55 247.74 252.55 247.74 209.65 268.91 209.65 297.69 230.6 317.64 230.6 370.42 257.7 370.42 305.75 364.35 305.75 220.63 304.33" style="fill:#405160"/><rect x="237.29" y="263.03" width="13.44" height="53.09" style="fill:#4e5e6c"/><rect x="328.05" y="262.74" width="25.2" height="75.61" style="fill:#354657"/><polygon points="297.69 135.83 288 135.67 279.43 125.75 264.54 125.75 264.54 167.76 297.69 167.76 297.69 135.83" style="fill:#213446"/><polygon points="258.16 103.91 258.16 100.55 273.69 96.18 277.25 96.18 274.56 100.55 265.49 100.55 258.16 103.91" style="fill:#cecece"/><polygon points="273.83 84.08 273.83 93.16 279.94 87.95 293.38 87.44 291.02 82.24 303.63 83.58 311.3 82.24 321.77 85.43 330.17 84.25 335.62 90.47 335.62 80.05 288.4 80.05 288.4 82.07 286.77 83.69 273.83 84.08" style="fill:#bfbfb6"/><polygon points="282.35 107.16 244.02 107.16 240.51 112.76 247.12 112.76 250.03 110.52 255.52 112.76 260.67 111.19 266.94 110.63 281.11 112.76 290.24 119.03 302 119.03 314.66 128.1 324.07 134.15 326.04 139.64 328.55 148.49 330.41 140.71 330.41 123.74 282.35 107.16" style="fill:#cecec2"/><polygon points="345.19 100.55 315.28 100.55 299.03 113.03 309.78 116.62 315.39 106.26 323.84 105.93 337.9 105.59 345.19 107.16 350 100.55 345.19 100.55" style="fill:#b5b5aa"/><polygon points="234.91 156 234.91 162.72 237.29 161.04 239.46 156 244.02 156 244.02 151.63 234.91 156" style="fill:#cecec2"/><polygon points="280.11 123.23 265.49 123.23 261.29 124.91 262.63 130.96 264.54 125.75 279.43 125.75 283 129.88 280.11 123.23" style="fill:#cecec2"/><polygon points="345.19 133.31 345.19 140.71 353.26 140.71 345.19 133.31" style="fill:#cecec2"/><polygon points="353.17 144.82 353.26 156 364.35 156 353.17 144.82" style="fill:#cecec2"/><polygon points="364.47 161.81 364.35 167.76 370.42 167.76 364.47 161.81" style="fill:#cecec2"/><polygon points="227.58 183.22 237.29 183.22 237.29 173.5 227.58 183.22" style="fill:#cecec2"/><rect x="322.44" y="74.42" width="2.16" height="2.16" style="fill:#e0ab2a"/><rect x="312.11" y="74.42" width="2.16" height="2.16" style="fill:#2a3d4e"/><rect x="317.11" y="73" width="2.66" height="5" style="fill:#2a3d4e"/><polygon points="339.92 88.46 337.9 98.54 342.86 98.54 339.92 88.46" style="fill:#354657"/><polygon points="303.46 269.37 294.25 285.73 312.28 285.67 303.46 269.37" style="fill:#366e53"/><path d="M300.6,77.41a1.32,1.32,0,0,0-1.32,1.32v1.32h2.65V78.73A1.33,1.33,0,0,0,300.6,77.41Z" style="fill:#354657"/><path d="M295.84,77.41a1.32,1.32,0,0,0-1.32,1.32v1.32h2.65V78.73A1.32,1.32,0,0,0,295.84,77.41Z" style="fill:#354657"/><polygon points="348.04 295.77 327.65 263.53 320.37 302.96 348.04 305.37 348.04 295.77" style="fill:#204e4d"/><polygon points="259.77 265.85 248.79 300.55 276.13 301.45 259.77 265.85" style="fill:#204e4d"/><polygon points="584.17 242.58 556.05 182.29 540.65 226.98 540.65 301.15 584.67 301.15 588.7 279.35 584.17 242.58" style="fill:#203537"/><polygon points="451.9 233.76 455.52 270.19 466.77 278.29 498.21 270.65 500.54 234.38 476.23 181.81 451.9 233.76" style="fill:#203537"/><polygon points="29.86 224.73 44.96 298.46 72.54 280.91 73.89 240.98 58.88 171.78 29.86 224.73" style="fill:#203537"/><polygon points="525.7 174.41 517.38 245.32 524.52 294.88 564.28 302.4 525.7 174.41" style="fill:#366e53"/><polygon points="471.25 301.15 493.74 203.56 500.88 218.01 509.4 195.16 532.25 301.15 490.46 304.25 471.25 301.15" style="fill:#204e4d"/><polygon points="447 292.51 425.22 235.89 415.53 251.08 399.13 199.88 379 292.51 447 292.51" style="fill:#204e4d"/><path d="M494.43,297.58l9.75-39.29s7.22,36.78,9,38.4S494.43,297.58,494.43,297.58Z" style="fill:#366e53"/><polygon points="444.37 250.68 427.74 199.53 385.98 302.28 451.9 307.95 444.37 250.68" style="fill:#203537"/><polygon points="548.67 260.31 553.12 223.85 561.82 249.85 575.53 208.26 590.02 222.47 590.02 315.17 551.01 302.28 548.67 260.31" style="fill:#204e4d"/><polygon points="453.7 279.88 474.44 211.85 496.35 311.19 458.62 311.19 453.7 279.88" style="fill:#204e4d"/><polygon points="161.92 228.09 182.24 189.44 223.1 302.28 183.81 295.18 161.92 228.09" style="fill:#204e4d"/><polygon points="1.79 319.05 21.21 175.92 78.87 321.15 1.79 319.05" style="fill:#204e4d"/><polygon points="447 180.42 431.9 300.33 470.25 302.28 447 180.42" style="fill:#366e53"/><polygon points="107.48 253.68 77.24 174.43 49.34 297.66 43.21 306.3 80.35 328.22 107.48 303.61 107.48 253.68" style="fill:#366e53"/><polygon points="137.34 270.66 123.9 245.2 106.82 315.17 185.12 312.44 193.71 294.29 145.97 172.64 137.34 270.66" style="fill:#366e53"/><polygon points="117.91 165.25 96.59 260.32 87.35 238.02 71.87 298.99 131.76 302.28 160.18 306.53 117.91 165.25" style="fill:#204e4d"/><polygon points="143.42 304.26 158.29 264.69 172.32 296.06 143.42 304.26" style="fill:#204e4d"/><path d="M99.69,315.17c7.13,0,24.21-70,24.21-70L146,313.8Z" style="fill:#366e53"/><polygon points="389.26 298.82 364.79 238.41 356.67 268.63 348.74 266.37 341.1 295.97 389.26 298.82" style="fill:#366e53"/><polygon points="223.93 243.9 203.77 297.74 237.74 300.33 223.93 243.9" style="fill:#204e4d"/><polygon points="244.46 230.07 221.91 294.29 258.6 297.74 244.46 230.07" style="fill:#366e53"/><polygon points="270.75 297.03 292.01 296.95 286.21 255.69 270.75 297.03" style="fill:#366e53"/><polygon points="320.37 273.65 313.91 299.95 332.36 299.88 320.37 273.65" style="fill:#366e53"/></svg>