<svg xmlns="http://www.w3.org/2000/svg" width="374" height="225.351" viewBox="0 0 374 225.351">
  <style type="text/css">
   <![CDATA[
    @font-face {
        font-family: Muli;
        src: url('https://fonts.googleapis.com/css?family=Muli:400,700');
    }
   ]]>
 </style>
  <g id="Grupo_19" data-name="Grupo 19" transform="translate(-1 -434.649)">
    <text id="Similirillion:_Simile_vs_Metaphor" data-name="Similirillion: 
Simile vs Metaphor" transform="translate(1 447)" fill="#f2f2f2" font-size="56" font-family="Muli-Bold, Muli" font-weight="700"><tspan x="33.868" y="56">Similirillion: </tspan><tspan x="69.82" y="126">Simile vs </tspan><tspan x="58.312" y="196">Metaphor</tspan></text>
    <g id="Grupo_17" data-name="Grupo 17" transform="translate(-858.608 336.105)">
      <rect id="Rectángulo_18" data-name="Rectángulo 18" width="19.138" height="8.635" transform="translate(969.638 119.041)" fill="#ee5700"/>
      <rect id="Rectángulo_19" data-name="Rectángulo 19" width="19.136" height="8.635" transform="translate(950.501 119.041)" fill="#fb9900"/>
      <rect id="Rectángulo_20" data-name="Rectángulo 20" width="21.031" height="3.309" transform="translate(969.638 127.676)" fill="#fb9900"/>
      <rect id="Rectángulo_21" data-name="Rectángulo 21" width="21.029" height="3.309" transform="translate(948.608 127.676)" fill="#ffe000"/>
      <path id="Trazado_172" data-name="Trazado 172" d="M996.814,101.64a2,2,0,1,0-.274,3.979c.027,0,.052-.008.079-.008v.008a4.454,4.454,0,0,1-4.455,4.454v-.013c-.1.005-.2.013-.3.013a4.454,4.454,0,0,1-4.454-4.454c0-.012,0-.024,0-.038a1.952,1.952,0,0,0,.377.038,2,2,0,1,0-.273-3.979,2.031,2.031,0,1,0-3.461,0,2,2,0,1,0-.273,3.979c.026,0,.052-.008.078-.008l0,.008a4.454,4.454,0,0,1-4.456,4.454v5.967h19.138v-17.5A4.439,4.439,0,0,0,996.814,101.64Z" transform="translate(-9.769 0)" fill="#ee5700"/>
      <path id="Trazado_173" data-name="Trazado 173" d="M970.517,110.073v-.013c-.1.005-.2.013-.3.013a4.454,4.454,0,0,1-4.455-4.454c0-.012,0-.024,0-.038a1.954,1.954,0,0,0,.378.038,2,2,0,1,0-.273-3.979,2.032,2.032,0,1,0-3.461,0,2,2,0,1,0-.273,3.979c.027,0,.052-.008.079-.008v.008a4.454,4.454,0,0,1-4.454,4.454v-.013c-.1.005-.2.013-.3.013A4.454,4.454,0,0,1,953,105.619c0-.012,0-.024,0-.038a1.967,1.967,0,0,0,.378.038,2,2,0,1,0,0-4.007,2.031,2.031,0,0,0-.274.028,4.445,4.445,0,0,0-1.73-3.1v17.5h19.136Z" transform="translate(-0.879 0)" fill="#fb9900"/>
      <path id="Trazado_174" data-name="Trazado 174" d="M980.243,134.161a1.56,1.56,0,1,1-1.561-1.56A1.559,1.559,0,0,1,980.243,134.161Z" transform="translate(-9.044 -10.802)" fill="#ffe000"/>
      <path id="Trazado_175" data-name="Trazado 175" d="M969.435,134.161a1.561,1.561,0,1,1-1.56-1.56A1.56,1.56,0,0,1,969.435,134.161Z" transform="translate(-5.616 -10.802)" fill="#ffe000"/>
      <path id="Trazado_176" data-name="Trazado 176" d="M958.627,134.161a1.56,1.56,0,1,1-1.56-1.56A1.559,1.559,0,0,1,958.627,134.161Z" transform="translate(-2.189 -10.802)" fill="#ffe000"/>
      <path id="Trazado_177" data-name="Trazado 177" d="M1001.414,134.161a1.56,1.56,0,1,1-1.559-1.56A1.558,1.558,0,0,1,1001.414,134.161Z" transform="translate(-15.76 -10.802)" fill="#fb9900"/>
      <path id="Trazado_178" data-name="Trazado 178" d="M990.607,134.161a1.561,1.561,0,1,1-1.561-1.56A1.56,1.56,0,0,1,990.607,134.161Z" transform="translate(-12.332 -10.802)" fill="#fb9900"/>
      <rect id="Rectángulo_22" data-name="Rectángulo 22" width="21.029" height="3.309" transform="translate(948.608 114.913)" fill="#ffe000"/>
      <rect id="Rectángulo_23" data-name="Rectángulo 23" width="21.031" height="3.309" transform="translate(969.638 114.913)" fill="#fb9900"/>
      <rect id="Rectángulo_24" data-name="Rectángulo 24" width="19.17" height="1.55" transform="translate(950.467 118.222)" fill="#ee5700"/>
      <rect id="Rectángulo_25" data-name="Rectángulo 25" width="19.172" height="1.55" transform="translate(969.638 118.222)" fill="#ee5700"/>
    </g>
  </g>
</svg>
