<svg xmlns="http://www.w3.org/2000/svg" width="163" height="50" viewBox="0 0 163 50">
  <defs>
    <style>
      .cls-1 {
        fill: #f2f2f2;
        font-size: 16px;
        font-family: Muli-Bold, Muli;
        font-weight: 700;
      }

      .cls-2 {
        fill: #ee5700;
      }

      .cls-3 {
        fill: #fb9900;
      }

      .cls-4 {
        fill: #ffe000;
      }
    </style>
  </defs>
  <g id="Grupo_18" data-name="Grupo 18" transform="translate(-17 -44)">
    <text id="Similirillion:_Simile_vs_Metaphor" data-name="Similirillion: 
Simile vs Metaphor" class="cls-1" transform="translate(17 49)"><tspan x="0" y="16">Similirillion: </tspan><tspan x="0" y="36">Simile vs Metaphor</tspan></text>
    <g id="Grupo_17" data-name="Grupo 17" transform="translate(-915.608 -54.544)">
      <rect id="Rectángulo_18" data-name="Rectángulo 18" class="cls-2" width="5.953" height="2.686" transform="translate(955.149 104.919)"/>
      <rect id="Rectángulo_19" data-name="Rectángulo 19" class="cls-3" width="5.952" height="2.686" transform="translate(949.197 104.919)"/>
      <rect id="Rectángulo_20" data-name="Rectángulo 20" class="cls-3" width="6.541" height="1.029" transform="translate(955.149 107.605)"/>
      <rect id="Rectángulo_21" data-name="Rectángulo 21" class="cls-4" width="6.541" height="1.029" transform="translate(948.608 107.605)"/>
      <path id="Trazado_172" data-name="Trazado 172" class="cls-2" d="M984.821,99.507a.622.622,0,1,0-.085,1.238l.025,0v0a1.385,1.385,0,0,1-1.386,1.385v0c-.031,0-.062,0-.094,0a1.385,1.385,0,0,1-1.385-1.385s0-.007,0-.012a.607.607,0,0,0,.117.012.624.624,0,1,0-.085-1.238.632.632,0,1,0-1.076,0,.622.622,0,1,0-.085,1.238l.024,0v0a1.385,1.385,0,0,1-1.386,1.385v1.856h5.953V98.544A1.381,1.381,0,0,0,984.821,99.507Z" transform="translate(-24.257)"/>
      <path id="Trazado_173" data-name="Trazado 173" class="cls-3" d="M957.333,102.13v0c-.031,0-.062,0-.093,0a1.385,1.385,0,0,1-1.386-1.385s0-.007,0-.012a.608.608,0,0,0,.117.012.624.624,0,1,0-.085-1.238.632.632,0,1,0-1.076,0,.622.622,0,1,0-.085,1.238l.024,0v0a1.385,1.385,0,0,1-1.385,1.385v0c-.031,0-.062,0-.094,0a1.385,1.385,0,0,1-1.386-1.385s0-.007,0-.012a.612.612,0,0,0,.118.012.623.623,0,1,0,0-1.246.63.63,0,0,0-.085.009,1.383,1.383,0,0,0-.538-.963v5.442h5.952Z" transform="translate(-2.184)"/>
      <path id="Trazado_174" data-name="Trazado 174" class="cls-4" d="M978.093,133.086a.485.485,0,1,1-.485-.485A.485.485,0,0,1,978.093,133.086Z" transform="translate(-22.459 -26.824)"/>
      <path id="Trazado_175" data-name="Trazado 175" class="cls-4" d="M967.285,133.086a.485.485,0,1,1-.485-.485A.485.485,0,0,1,967.285,133.086Z" transform="translate(-13.945 -26.824)"/>
      <path id="Trazado_176" data-name="Trazado 176" class="cls-4" d="M956.478,133.086a.485.485,0,1,1-.485-.485A.485.485,0,0,1,956.478,133.086Z" transform="translate(-5.434 -26.824)"/>
      <path id="Trazado_177" data-name="Trazado 177" class="cls-3" d="M999.264,133.086a.485.485,0,1,1-.485-.485A.485.485,0,0,1,999.264,133.086Z" transform="translate(-39.133 -26.824)"/>
      <path id="Trazado_178" data-name="Trazado 178" class="cls-3" d="M988.457,133.086a.485.485,0,1,1-.485-.485A.485.485,0,0,1,988.457,133.086Z" transform="translate(-30.621 -26.824)"/>
      <rect id="Rectángulo_22" data-name="Rectángulo 22" class="cls-4" width="6.541" height="1.029" transform="translate(948.608 103.635)"/>
      <rect id="Rectángulo_23" data-name="Rectángulo 23" class="cls-3" width="6.541" height="1.029" transform="translate(955.149 103.635)"/>
      <rect id="Rectángulo_24" data-name="Rectángulo 24" class="cls-2" width="5.963" height="0.482" transform="translate(949.187 104.665)"/>
      <rect id="Rectángulo_25" data-name="Rectángulo 25" class="cls-2" width="5.963" height="0.482" transform="translate(955.149 104.665)"/>
    </g>
  </g>
</svg>
